<mxfile host="65bd71144e">
    <diagram id="w1D6k9wV9FKWsaJmlRSs" name="Page-1">
        <mxGraphModel dx="1146" dy="171" grid="1" gridSize="10" guides="1" tooltips="1" connect="1" arrows="1" fold="1" page="1" pageScale="1" pageWidth="850" pageHeight="1100" math="0" shadow="0">
            <root>
                <mxCell id="0"/>
                <mxCell id="1" parent="0"/>
                <mxCell id="111" value="alt" style="shape=umlFrame;whiteSpace=wrap;html=1;fontFamily=Helvetica;fontSize=11;" vertex="1" parent="1">
                    <mxGeometry x="50" y="1480" width="800" height="180" as="geometry"/>
                </mxCell>
                <mxCell id="44" value="alt" style="shape=umlFrame;whiteSpace=wrap;html=1;fontFamily=Helvetica;fontSize=11;" vertex="1" parent="1">
                    <mxGeometry x="-60" y="491" width="1560" height="1259" as="geometry"/>
                </mxCell>
                <mxCell id="68" value="alt" style="shape=umlFrame;whiteSpace=wrap;html=1;fontFamily=Helvetica;fontSize=11;" vertex="1" parent="1">
                    <mxGeometry x="-39" y="770" width="1529" height="970" as="geometry"/>
                </mxCell>
                <mxCell id="87" value="alt" style="shape=umlFrame;whiteSpace=wrap;html=1;fontFamily=Helvetica;fontSize=11;" vertex="1" parent="1">
                    <mxGeometry x="-10" y="1000" width="1480" height="730" as="geometry"/>
                </mxCell>
                <mxCell id="88" value="alt" style="shape=umlFrame;whiteSpace=wrap;html=1;fontFamily=Helvetica;fontSize=11;" vertex="1" parent="1">
                    <mxGeometry x="30" y="1220" width="1420" height="500" as="geometry"/>
                </mxCell>
                <mxCell id="2" value="Admin" style="shape=umlActor;verticalLabelPosition=bottom;verticalAlign=top;html=1;outlineConnect=0;" vertex="1" parent="1">
                    <mxGeometry x="40" y="10" width="30" height="60" as="geometry"/>
                </mxCell>
                <mxCell id="4" value="AddEmployeePage" style="rounded=0;whiteSpace=wrap;html=1;" vertex="1" parent="1">
                    <mxGeometry x="240" y="10" width="120" height="60" as="geometry"/>
                </mxCell>
                <mxCell id="5" value="EmployeeController" style="rounded=0;whiteSpace=wrap;html=1;" vertex="1" parent="1">
                    <mxGeometry x="520" y="10" width="120" height="60" as="geometry"/>
                </mxCell>
                <mxCell id="6" value="EmployeeDAO" style="rounded=0;whiteSpace=wrap;html=1;" vertex="1" parent="1">
                    <mxGeometry x="800" y="10" width="120" height="60" as="geometry"/>
                </mxCell>
                <mxCell id="8" value="DB" style="shape=cylinder3;whiteSpace=wrap;html=1;boundedLbl=1;backgroundOutline=1;size=15;" vertex="1" parent="1">
                    <mxGeometry x="1360" width="80" height="80" as="geometry"/>
                </mxCell>
                <mxCell id="10" value="" style="endArrow=none;dashed=1;html=1;" edge="1" parent="1">
                    <mxGeometry width="50" height="50" relative="1" as="geometry">
                        <mxPoint x="70" y="1780" as="sourcePoint"/>
                        <mxPoint x="60" y="90" as="targetPoint"/>
                    </mxGeometry>
                </mxCell>
                <mxCell id="11" value="" style="endArrow=none;dashed=1;html=1;" edge="1" parent="1">
                    <mxGeometry width="50" height="50" relative="1" as="geometry">
                        <mxPoint x="300" y="1800" as="sourcePoint"/>
                        <mxPoint x="300" y="70" as="targetPoint"/>
                    </mxGeometry>
                </mxCell>
                <mxCell id="12" value="" style="endArrow=none;dashed=1;html=1;" edge="1" parent="1">
                    <mxGeometry width="50" height="50" relative="1" as="geometry">
                        <mxPoint x="579" y="1800" as="sourcePoint"/>
                        <mxPoint x="579.4100000000001" y="60" as="targetPoint"/>
                    </mxGeometry>
                </mxCell>
                <mxCell id="13" value="" style="endArrow=none;dashed=1;html=1;" edge="1" parent="1">
                    <mxGeometry width="50" height="50" relative="1" as="geometry">
                        <mxPoint x="859" y="1790" as="sourcePoint"/>
                        <mxPoint x="859.4100000000001" y="70" as="targetPoint"/>
                    </mxGeometry>
                </mxCell>
                <mxCell id="14" value="" style="endArrow=none;dashed=1;html=1;entryX=0.5;entryY=1;entryDx=0;entryDy=0;" edge="1" parent="1" target="22">
                    <mxGeometry width="50" height="50" relative="1" as="geometry">
                        <mxPoint x="1140" y="1780" as="sourcePoint"/>
                        <mxPoint x="1159.41" y="80" as="targetPoint"/>
                    </mxGeometry>
                </mxCell>
                <mxCell id="15" value="1. Input all employee's attribute&lt;br&gt;&amp;nbsp;then click &quot;Thêm nhân viên&quot;" style="endArrow=classic;html=1;entryX=-0.034;entryY=0.107;entryDx=0;entryDy=0;entryPerimeter=0;" edge="1" parent="1">
                    <mxGeometry width="50" height="50" relative="1" as="geometry">
                        <mxPoint x="58" y="110" as="sourcePoint"/>
                        <mxPoint x="294.6600000000001" y="109.41999999999996" as="targetPoint"/>
                    </mxGeometry>
                </mxCell>
                <mxCell id="16" value="" style="rounded=0;whiteSpace=wrap;html=1;" vertex="1" parent="1">
                    <mxGeometry x="296" y="103" width="10" height="1457" as="geometry"/>
                </mxCell>
                <mxCell id="17" value="2. doPost()" style="endArrow=classic;html=1;entryX=0.022;entryY=0.114;entryDx=0;entryDy=0;entryPerimeter=0;" edge="1" parent="1">
                    <mxGeometry x="-0.6048" y="1" width="50" height="50" relative="1" as="geometry">
                        <mxPoint x="306" y="120.57999999999994" as="sourcePoint"/>
                        <mxPoint x="574.2199999999998" y="119.83999999999997" as="targetPoint"/>
                        <mxPoint as="offset"/>
                    </mxGeometry>
                </mxCell>
                <mxCell id="18" value="" style="rounded=0;whiteSpace=wrap;html=1;" vertex="1" parent="1">
                    <mxGeometry x="575" y="113" width="10" height="1547" as="geometry"/>
                </mxCell>
                <mxCell id="20" value="" style="rounded=0;whiteSpace=wrap;html=1;" vertex="1" parent="1">
                    <mxGeometry x="582" y="159" width="10" height="1481" as="geometry"/>
                </mxCell>
                <mxCell id="21" value="3. addEmployee()" style="endArrow=classic;html=1;entryX=1.144;entryY=0.041;entryDx=0;entryDy=0;entryPerimeter=0;exitX=0.967;exitY=0.041;exitDx=0;exitDy=0;exitPerimeter=0;rounded=0;" edge="1" parent="1">
                    <mxGeometry x="-0.0506" y="10" width="50" height="50" relative="1" as="geometry">
                        <mxPoint x="585.6700000000001" y="134.197" as="sourcePoint"/>
                        <mxPoint x="594.44" y="180.19700000000012" as="targetPoint"/>
                        <mxPoint as="offset"/>
                        <Array as="points">
                            <mxPoint x="641" y="134"/>
                            <mxPoint x="641" y="180"/>
                        </Array>
                    </mxGeometry>
                </mxCell>
                <mxCell id="22" value="Generator" style="rounded=0;whiteSpace=wrap;html=1;" vertex="1" parent="1">
                    <mxGeometry x="1080" y="10" width="120" height="60" as="geometry"/>
                </mxCell>
                <mxCell id="23" value="" style="endArrow=none;dashed=1;html=1;entryX=0.5;entryY=1;entryDx=0;entryDy=0;" edge="1" parent="1">
                    <mxGeometry width="50" height="50" relative="1" as="geometry">
                        <mxPoint x="1399" y="1780" as="sourcePoint"/>
                        <mxPoint x="1399.41" y="80" as="targetPoint"/>
                    </mxGeometry>
                </mxCell>
                <mxCell id="25" value="4. genereateMD5HashPassword()" style="endArrow=classic;html=1;exitX=0.903;exitY=0.035;exitDx=0;exitDy=0;exitPerimeter=0;entryX=0.03;entryY=0.105;entryDx=0;entryDy=0;entryPerimeter=0;" edge="1" parent="1">
                    <mxGeometry x="-0.6048" y="1" width="50" height="50" relative="1" as="geometry">
                        <mxPoint x="591.0299999999997" y="210.83500000000004" as="sourcePoint"/>
                        <mxPoint x="1134.3000000000002" y="209.45" as="targetPoint"/>
                        <mxPoint as="offset"/>
                    </mxGeometry>
                </mxCell>
                <mxCell id="26" value="" style="rounded=0;whiteSpace=wrap;html=1;" vertex="1" parent="1">
                    <mxGeometry x="1135" y="200" width="10" height="90" as="geometry"/>
                </mxCell>
                <mxCell id="28" value="5. return MD5HashedPassword" style="endArrow=classic;html=1;exitX=0.112;exitY=0.858;exitDx=0;exitDy=0;exitPerimeter=0;entryX=1.237;entryY=0.233;entryDx=0;entryDy=0;entryPerimeter=0;dashed=1;" edge="1" parent="1">
                    <mxGeometry x="0.6071" width="50" height="50" relative="1" as="geometry">
                        <mxPoint x="1135.12" y="277.22" as="sourcePoint"/>
                        <mxPoint x="592.3699999999999" y="279.461" as="targetPoint"/>
                        <mxPoint as="offset"/>
                    </mxGeometry>
                </mxCell>
                <mxCell id="29" value="6. addEmployee()" style="endArrow=classic;html=1;exitX=1.213;exitY=0.099;exitDx=0;exitDy=0;exitPerimeter=0;entryX=0.074;entryY=0.008;entryDx=0;entryDy=0;entryPerimeter=0;" edge="1" parent="1">
                    <mxGeometry x="-0.1628" width="50" height="50" relative="1" as="geometry">
                        <mxPoint x="591.0000000000001" y="330.183" as="sourcePoint"/>
                        <mxPoint x="853.7400000000002" y="330.32000000000005" as="targetPoint"/>
                        <mxPoint as="offset"/>
                    </mxGeometry>
                </mxCell>
                <mxCell id="30" value="" style="rounded=0;whiteSpace=wrap;html=1;" vertex="1" parent="1">
                    <mxGeometry x="854" y="320" width="10" height="1290" as="geometry"/>
                </mxCell>
                <mxCell id="32" value="7. checkDuplication()" style="endArrow=classic;html=1;rounded=0;exitX=0.981;exitY=0.015;exitDx=0;exitDy=0;exitPerimeter=0;entryX=1.022;entryY=0.027;entryDx=0;entryDy=0;entryPerimeter=0;" edge="1" parent="1">
                    <mxGeometry x="0.0343" y="20" width="50" height="50" relative="1" as="geometry">
                        <mxPoint x="864.81" y="339.35" as="sourcePoint"/>
                        <mxPoint x="872.2199999999998" y="384.72799999999995" as="targetPoint"/>
                        <mxPoint as="offset"/>
                        <Array as="points">
                            <mxPoint x="911" y="340"/>
                            <mxPoint x="911" y="385"/>
                        </Array>
                    </mxGeometry>
                </mxCell>
                <mxCell id="33" value="" style="rounded=0;whiteSpace=wrap;html=1;" vertex="1" parent="1">
                    <mxGeometry x="861" y="356" width="10" height="1064" as="geometry"/>
                </mxCell>
                <mxCell id="37" value="" style="rounded=0;whiteSpace=wrap;html=1;" vertex="1" parent="1">
                    <mxGeometry x="868" y="440" width="10" height="210" as="geometry"/>
                </mxCell>
                <mxCell id="39" value="&lt;span id=&quot;docs-internal-guid-80087bf0-7fff-47d4-c1c9-a729f8e884e3&quot;&gt;&lt;span style=&quot;background-color: transparent; font-variant-numeric: normal; font-variant-east-asian: normal; font-variant-alternates: normal; vertical-align: baseline;&quot;&gt;9. executeQuery()&lt;/span&gt;&lt;/span&gt;" style="endArrow=classic;html=1;exitX=0.956;exitY=0.154;exitDx=0;exitDy=0;exitPerimeter=0;entryX=-0.158;entryY=0.061;entryDx=0;entryDy=0;entryPerimeter=0;" edge="1" parent="1">
                    <mxGeometry x="-0.7211" width="50" height="50" relative="1" as="geometry">
                        <mxPoint x="877.5600000000002" y="473.34000000000003" as="sourcePoint"/>
                        <mxPoint x="1394.42" y="473.529" as="targetPoint"/>
                        <mxPoint as="offset"/>
                    </mxGeometry>
                </mxCell>
                <mxCell id="40" value="" style="rounded=0;whiteSpace=wrap;html=1;" vertex="1" parent="1">
                    <mxGeometry x="1396" y="461" width="10" height="189" as="geometry"/>
                </mxCell>
                <mxCell id="41" value="&lt;span id=&quot;docs-internal-guid-80087bf0-7fff-47d4-c1c9-a729f8e884e3&quot;&gt;&lt;span style=&quot;background-color: transparent; font-variant-numeric: normal; font-variant-east-asian: normal; font-variant-alternates: normal; vertical-align: baseline;&quot;&gt;10.1 return Result&lt;/span&gt;&lt;/span&gt;" style="endArrow=classic;html=1;dashed=1;entryX=1;entryY=0.5;entryDx=0;entryDy=0;exitX=-0.104;exitY=0.435;exitDx=0;exitDy=0;exitPerimeter=0;" edge="1" parent="1">
                    <mxGeometry x="0.6867" width="50" height="50" relative="1" as="geometry">
                        <mxPoint x="1394.96" y="543.215" as="sourcePoint"/>
                        <mxPoint x="879" y="545" as="targetPoint"/>
                        <mxPoint as="offset"/>
                    </mxGeometry>
                </mxCell>
                <mxCell id="42" value="8. isUsernameExist()" style="endArrow=classic;html=1;exitX=1.078;exitY=0.043;exitDx=0;exitDy=0;exitPerimeter=0;entryX=1.008;entryY=0.055;entryDx=0;entryDy=0;entryPerimeter=0;rounded=0;" edge="1" parent="1">
                    <mxGeometry x="0.0343" y="20" width="50" height="50" relative="1" as="geometry">
                        <mxPoint x="872" y="406.21000000000004" as="sourcePoint"/>
                        <mxPoint x="879.0799999999999" y="451.54999999999995" as="targetPoint"/>
                        <mxPoint as="offset"/>
                        <Array as="points">
                            <mxPoint x="917.22" y="406"/>
                            <mxPoint x="917.22" y="451"/>
                        </Array>
                    </mxGeometry>
                </mxCell>
                <mxCell id="43" value="&lt;span id=&quot;docs-internal-guid-80087bf0-7fff-47d4-c1c9-a729f8e884e3&quot;&gt;&lt;span style=&quot;background-color: transparent; font-variant-numeric: normal; font-variant-east-asian: normal; font-variant-alternates: normal; vertical-align: baseline;&quot;&gt;11. return null&lt;/span&gt;&lt;/span&gt;" style="endArrow=classic;html=1;dashed=1;exitX=-0.141;exitY=0.896;exitDx=0;exitDy=0;exitPerimeter=0;" edge="1" parent="1" source="40">
                    <mxGeometry x="0.6867" width="50" height="50" relative="1" as="geometry">
                        <mxPoint x="1390" y="630" as="sourcePoint"/>
                        <mxPoint x="878" y="630" as="targetPoint"/>
                        <mxPoint as="offset"/>
                    </mxGeometry>
                </mxCell>
                <mxCell id="45" value="[Username is Exist]" style="text;html=1;strokeColor=none;fillColor=none;align=center;verticalAlign=middle;whiteSpace=wrap;rounded=0;fontFamily=Helvetica;fontSize=11;" vertex="1" parent="1">
                    <mxGeometry x="878" y="500" width="170" height="30" as="geometry"/>
                </mxCell>
                <mxCell id="47" value="" style="endArrow=none;dashed=1;html=1;dashPattern=1 3;strokeWidth=2;rounded=0;fontFamily=Helvetica;fontSize=11;exitX=0.001;exitY=0.477;exitDx=0;exitDy=0;exitPerimeter=0;entryX=1;entryY=0.125;entryDx=0;entryDy=0;entryPerimeter=0;" edge="1" parent="1">
                    <mxGeometry width="50" height="50" relative="1" as="geometry">
                        <mxPoint x="-60.48999999999978" y="585.4" as="sourcePoint"/>
                        <mxPoint x="1499" y="588.375" as="targetPoint"/>
                    </mxGeometry>
                </mxCell>
                <mxCell id="48" value="[Else]" style="text;html=1;strokeColor=none;fillColor=none;align=center;verticalAlign=middle;whiteSpace=wrap;rounded=0;fontFamily=Helvetica;fontSize=11;" vertex="1" parent="1">
                    <mxGeometry x="917" y="590" width="43" height="30" as="geometry"/>
                </mxCell>
                <mxCell id="49" value="&lt;span id=&quot;docs-internal-guid-80087bf0-7fff-47d4-c1c9-a729f8e884e3&quot;&gt;&lt;span style=&quot;background-color: transparent; font-variant-numeric: normal; font-variant-east-asian: normal; font-variant-alternates: normal; vertical-align: baseline;&quot;&gt;10.2 send Error to Conttroller&lt;/span&gt;&lt;/span&gt;" style="endArrow=classic;html=1;dashed=1;" edge="1" parent="1">
                    <mxGeometry x="0.2424" width="50" height="50" relative="1" as="geometry">
                        <mxPoint x="854.0000000000005" y="558.73" as="sourcePoint"/>
                        <mxPoint x="590" y="559" as="targetPoint"/>
                        <mxPoint as="offset"/>
                    </mxGeometry>
                </mxCell>
                <mxCell id="50" value="&lt;span id=&quot;docs-internal-guid-80087bf0-7fff-47d4-c1c9-a729f8e884e3&quot;&gt;&lt;span style=&quot;background-color: transparent; font-variant-numeric: normal; font-variant-east-asian: normal; font-variant-alternates: normal; vertical-align: baseline;&quot;&gt;10.3 send error to page&lt;/span&gt;&lt;/span&gt;&lt;span style=&quot;color: rgba(0, 0, 0, 0); font-family: monospace; font-size: 0px; text-align: start; background-color: rgb(251, 251, 251);&quot;&gt;%3CmxGraphModel%3E%3Croot%3E%3CmxCell%20id%3D%220%22%2F%3E%3CmxCell%20id%3D%221%22%20parent%3D%220%22%2F%3E%3CmxCell%20id%3D%222%22%20value%3D%22%26lt%3Bspan%20id%3D%26quot%3Bdocs-internal-guid-80087bf0-7fff-47d4-c1c9-a729f8e884e3%26quot%3B%26gt%3B%26lt%3Bspan%20style%3D%26quot%3Bbackground-color%3A%20transparent%3B%20font-variant-numeric%3A%20normal%3B%20font-variant-east-asian%3A%20normal%3B%20font-variant-alternates%3A%20normal%3B%20vertical-align%3A%20baseline%3B%26quot%3B%26gt%3Bsend%20Error%20to%20Conttroller%26lt%3B%2Fspan%26gt%3B%26lt%3B%2Fspan%26gt%3B%22%20style%3D%22endArrow%3Dclassic%3Bhtml%3D1%3Bdashed%3D1%3B%22%20edge%3D%221%22%20parent%3D%221%22%3E%3CmxGeometry%20x%3D%220.2424%22%20width%3D%2250%22%20height%3D%2250%22%20relative%3D%221%22%20as%3D%22geometry%22%3E%3CmxPoint%20x%3D%22854.0000000000005%22%20y%3D%22558.73%22%20as%3D%22sourcePoint%22%2F%3E%3CmxPoint%20x%3D%22590%22%20y%3D%22559%22%20as%3D%22targetPoint%22%2F%3E%3CmxPoint%20as%3D%22offset%22%2F%3E%3C%2FmxGeometry%3E%3C%2FmxCell%3E%3C%2Froot%3E%3C%2FmxGraphModel%3E&lt;/span&gt;" style="endArrow=classic;html=1;dashed=1;entryX=0.989;entryY=0.318;entryDx=0;entryDy=0;entryPerimeter=0;" edge="1" parent="1">
                    <mxGeometry x="0.241" width="50" height="50" relative="1" as="geometry">
                        <mxPoint x="576.0000000000005" y="566.73" as="sourcePoint"/>
                        <mxPoint x="306.8900000000001" y="566.326" as="targetPoint"/>
                        <mxPoint as="offset"/>
                    </mxGeometry>
                </mxCell>
                <mxCell id="51" value="10.4. display information" style="endArrow=classic;html=1;dashed=1;" edge="1" parent="1">
                    <mxGeometry x="0.2369" width="50" height="50" relative="1" as="geometry">
                        <mxPoint x="290" y="572" as="sourcePoint"/>
                        <mxPoint x="59" y="572.27" as="targetPoint"/>
                        <mxPoint as="offset"/>
                    </mxGeometry>
                </mxCell>
                <mxCell id="54" value="" style="rounded=0;whiteSpace=wrap;html=1;" vertex="1" parent="1">
                    <mxGeometry x="868" y="699" width="10" height="210" as="geometry"/>
                </mxCell>
                <mxCell id="55" value="&lt;span id=&quot;docs-internal-guid-80087bf0-7fff-47d4-c1c9-a729f8e884e3&quot;&gt;&lt;span style=&quot;background-color: transparent; font-variant-numeric: normal; font-variant-east-asian: normal; font-variant-alternates: normal; vertical-align: baseline;&quot;&gt;13. executeQuery()&lt;/span&gt;&lt;/span&gt;" style="endArrow=classic;html=1;exitX=1.047;exitY=0.152;exitDx=0;exitDy=0;exitPerimeter=0;entryX=-0.067;entryY=0.06;entryDx=0;entryDy=0;entryPerimeter=0;" edge="1" parent="1">
                    <mxGeometry x="-0.6839" y="1" width="50" height="50" relative="1" as="geometry">
                        <mxPoint x="878.4699999999998" y="730.92" as="sourcePoint"/>
                        <mxPoint x="1394.33" y="731.34" as="targetPoint"/>
                        <mxPoint as="offset"/>
                    </mxGeometry>
                </mxCell>
                <mxCell id="56" value="" style="rounded=0;whiteSpace=wrap;html=1;" vertex="1" parent="1">
                    <mxGeometry x="1396" y="720" width="10" height="189" as="geometry"/>
                </mxCell>
                <mxCell id="57" value="&lt;span id=&quot;docs-internal-guid-80087bf0-7fff-47d4-c1c9-a729f8e884e3&quot;&gt;&lt;span style=&quot;background-color: transparent; font-variant-numeric: normal; font-variant-east-asian: normal; font-variant-alternates: normal; vertical-align: baseline;&quot;&gt;14.1 return Result&lt;/span&gt;&lt;/span&gt;" style="endArrow=classic;html=1;dashed=1;entryX=1;entryY=0.5;entryDx=0;entryDy=0;exitX=-0.037;exitY=0.439;exitDx=0;exitDy=0;exitPerimeter=0;" edge="1" parent="1">
                    <mxGeometry x="0.6867" width="50" height="50" relative="1" as="geometry">
                        <mxPoint x="1394.6299999999997" y="802.971" as="sourcePoint"/>
                        <mxPoint x="877" y="804" as="targetPoint"/>
                        <mxPoint as="offset"/>
                    </mxGeometry>
                </mxCell>
                <mxCell id="58" value="12. isEmailExist()" style="endArrow=classic;html=1;exitX=1.078;exitY=0.043;exitDx=0;exitDy=0;exitPerimeter=0;entryX=0.993;entryY=0.049;entryDx=0;entryDy=0;entryPerimeter=0;rounded=0;" edge="1" parent="1">
                    <mxGeometry x="0.0343" y="20" width="50" height="50" relative="1" as="geometry">
                        <mxPoint x="872" y="665.2100000000002" as="sourcePoint"/>
                        <mxPoint x="878.9300000000001" y="709.29" as="targetPoint"/>
                        <mxPoint as="offset"/>
                        <Array as="points">
                            <mxPoint x="917.22" y="665"/>
                            <mxPoint x="917.22" y="710"/>
                        </Array>
                    </mxGeometry>
                </mxCell>
                <mxCell id="59" value="&lt;span id=&quot;docs-internal-guid-80087bf0-7fff-47d4-c1c9-a729f8e884e3&quot;&gt;&lt;span style=&quot;background-color: transparent; font-variant-numeric: normal; font-variant-east-asian: normal; font-variant-alternates: normal; vertical-align: baseline;&quot;&gt;15. return null&lt;/span&gt;&lt;/span&gt;" style="endArrow=classic;html=1;dashed=1;exitX=-0.037;exitY=0.894;exitDx=0;exitDy=0;exitPerimeter=0;" edge="1" parent="1">
                    <mxGeometry x="0.6867" width="50" height="50" relative="1" as="geometry">
                        <mxPoint x="1394.6299999999997" y="888.9659999999999" as="sourcePoint"/>
                        <mxPoint x="877" y="889" as="targetPoint"/>
                        <mxPoint as="offset"/>
                    </mxGeometry>
                </mxCell>
                <mxCell id="65" value="&lt;span id=&quot;docs-internal-guid-80087bf0-7fff-47d4-c1c9-a729f8e884e3&quot;&gt;&lt;span style=&quot;background-color: transparent; font-variant-numeric: normal; font-variant-east-asian: normal; font-variant-alternates: normal; vertical-align: baseline;&quot;&gt;14.2 send Error to Conttroller&lt;/span&gt;&lt;/span&gt;" style="endArrow=classic;html=1;dashed=1;exitX=-0.076;exitY=0.385;exitDx=0;exitDy=0;exitPerimeter=0;" edge="1" parent="1">
                    <mxGeometry x="0.2424" width="50" height="50" relative="1" as="geometry">
                        <mxPoint x="853.24" y="816.65" as="sourcePoint"/>
                        <mxPoint x="592" y="817" as="targetPoint"/>
                        <mxPoint as="offset"/>
                    </mxGeometry>
                </mxCell>
                <mxCell id="66" value="&lt;span id=&quot;docs-internal-guid-80087bf0-7fff-47d4-c1c9-a729f8e884e3&quot;&gt;&lt;span style=&quot;background-color: transparent; font-variant-numeric: normal; font-variant-east-asian: normal; font-variant-alternates: normal; vertical-align: baseline;&quot;&gt;14.3 send error to page&lt;/span&gt;&lt;/span&gt;&lt;span style=&quot;color: rgba(0, 0, 0, 0); font-family: monospace; font-size: 0px; text-align: start; background-color: rgb(251, 251, 251);&quot;&gt;%3CmxGraphModel%3E%3Croot%3E%3CmxCell%20id%3D%220%22%2F%3E%3CmxCell%20id%3D%221%22%20parent%3D%220%22%2F%3E%3CmxCell%20id%3D%222%22%20value%3D%22%26lt%3Bspan%20id%3D%26quot%3Bdocs-internal-guid-80087bf0-7fff-47d4-c1c9-a729f8e884e3%26quot%3B%26gt%3B%26lt%3Bspan%20style%3D%26quot%3Bbackground-color%3A%20transparent%3B%20font-variant-numeric%3A%20normal%3B%20font-variant-east-asian%3A%20normal%3B%20font-variant-alternates%3A%20normal%3B%20vertical-align%3A%20baseline%3B%26quot%3B%26gt%3Bsend%20Error%20to%20Conttroller%26lt%3B%2Fspan%26gt%3B%26lt%3B%2Fspan%26gt%3B%22%20style%3D%22endArrow%3Dclassic%3Bhtml%3D1%3Bdashed%3D1%3B%22%20edge%3D%221%22%20parent%3D%221%22%3E%3CmxGeometry%20x%3D%220.2424%22%20width%3D%2250%22%20height%3D%2250%22%20relative%3D%221%22%20as%3D%22geometry%22%3E%3CmxPoint%20x%3D%22854.0000000000005%22%20y%3D%22558.73%22%20as%3D%22sourcePoint%22%2F%3E%3CmxPoint%20x%3D%22590%22%20y%3D%22559%22%20as%3D%22targetPoint%22%2F%3E%3CmxPoint%20as%3D%22offset%22%2F%3E%3C%2FmxGeometry%3E%3C%2FmxCell%3E%3C%2Froot%3E%3C%2FmxGraphModel%3E&lt;/span&gt;" style="endArrow=classic;html=1;dashed=1;entryX=1.122;entryY=0.495;entryDx=0;entryDy=0;entryPerimeter=0;" edge="1" parent="1">
                    <mxGeometry x="0.241" width="50" height="50" relative="1" as="geometry">
                        <mxPoint x="577.0000000000005" y="824.73" as="sourcePoint"/>
                        <mxPoint x="307.22" y="824.2149999999999" as="targetPoint"/>
                        <mxPoint as="offset"/>
                    </mxGeometry>
                </mxCell>
                <mxCell id="70" value="" style="endArrow=none;dashed=1;html=1;dashPattern=1 3;strokeWidth=2;rounded=0;fontFamily=Helvetica;fontSize=11;exitX=0;exitY=0.306;exitDx=0;exitDy=0;exitPerimeter=0;entryX=1.007;entryY=0.169;entryDx=0;entryDy=0;entryPerimeter=0;" edge="1" parent="1">
                    <mxGeometry width="50" height="50" relative="1" as="geometry">
                        <mxPoint x="-60" y="854.3140000000001" as="sourcePoint"/>
                        <mxPoint x="1500.703" y="852.31" as="targetPoint"/>
                    </mxGeometry>
                </mxCell>
                <mxCell id="71" value="" style="rounded=0;whiteSpace=wrap;html=1;" vertex="1" parent="1">
                    <mxGeometry x="868" y="936" width="10" height="210" as="geometry"/>
                </mxCell>
                <mxCell id="72" value="&lt;span id=&quot;docs-internal-guid-80087bf0-7fff-47d4-c1c9-a729f8e884e3&quot;&gt;&lt;span style=&quot;background-color: transparent; font-variant-numeric: normal; font-variant-east-asian: normal; font-variant-alternates: normal; vertical-align: baseline;&quot;&gt;17. executeQuery()&lt;/span&gt;&lt;/span&gt;" style="endArrow=classic;html=1;exitX=1.083;exitY=0.15;exitDx=0;exitDy=0;exitPerimeter=0;entryX=-0.023;entryY=0.059;entryDx=0;entryDy=0;entryPerimeter=0;" edge="1" parent="1">
                    <mxGeometry x="-0.7211" width="50" height="50" relative="1" as="geometry">
                        <mxPoint x="878.8299999999999" y="967.5" as="sourcePoint"/>
                        <mxPoint x="1394.77" y="968.1509999999998" as="targetPoint"/>
                        <mxPoint as="offset"/>
                    </mxGeometry>
                </mxCell>
                <mxCell id="73" value="" style="rounded=0;whiteSpace=wrap;html=1;" vertex="1" parent="1">
                    <mxGeometry x="1396" y="957" width="10" height="189" as="geometry"/>
                </mxCell>
                <mxCell id="74" value="&lt;span id=&quot;docs-internal-guid-80087bf0-7fff-47d4-c1c9-a729f8e884e3&quot;&gt;&lt;span style=&quot;background-color: transparent; font-variant-numeric: normal; font-variant-east-asian: normal; font-variant-alternates: normal; vertical-align: baseline;&quot;&gt;18.1. return Result&lt;/span&gt;&lt;/span&gt;" style="endArrow=classic;html=1;dashed=1;entryX=1;entryY=0.5;entryDx=0;entryDy=0;exitX=-0.1;exitY=0.438;exitDx=0;exitDy=0;exitPerimeter=0;" edge="1" parent="1">
                    <mxGeometry x="0.6867" width="50" height="50" relative="1" as="geometry">
                        <mxPoint x="1394" y="1039.782" as="sourcePoint"/>
                        <mxPoint x="878" y="1040.0000000000002" as="targetPoint"/>
                        <mxPoint as="offset"/>
                    </mxGeometry>
                </mxCell>
                <mxCell id="75" value="&lt;span id=&quot;docs-internal-guid-80087bf0-7fff-47d4-c1c9-a729f8e884e3&quot;&gt;&lt;span style=&quot;background-color: transparent; font-variant-numeric: normal; font-variant-east-asian: normal; font-variant-alternates: normal; vertical-align: baseline;&quot;&gt;19. return null&lt;/span&gt;&lt;/span&gt;" style="endArrow=classic;html=1;dashed=1;exitX=-0.1;exitY=0.894;exitDx=0;exitDy=0;exitPerimeter=0;" edge="1" parent="1">
                    <mxGeometry x="0.6867" width="50" height="50" relative="1" as="geometry">
                        <mxPoint x="1394" y="1125.966" as="sourcePoint"/>
                        <mxPoint x="877" y="1126" as="targetPoint"/>
                        <mxPoint as="offset"/>
                    </mxGeometry>
                </mxCell>
                <mxCell id="76" value="&lt;span id=&quot;docs-internal-guid-80087bf0-7fff-47d4-c1c9-a729f8e884e3&quot;&gt;&lt;span style=&quot;background-color: transparent; font-variant-numeric: normal; font-variant-east-asian: normal; font-variant-alternates: normal; vertical-align: baseline;&quot;&gt;18.2. send Error to Conttroller&lt;/span&gt;&lt;/span&gt;" style="endArrow=classic;html=1;dashed=1;exitX=-0.112;exitY=0.569;exitDx=0;exitDy=0;exitPerimeter=0;" edge="1" parent="1">
                    <mxGeometry x="0.2424" width="50" height="50" relative="1" as="geometry">
                        <mxPoint x="852.8799999999999" y="1054.0099999999998" as="sourcePoint"/>
                        <mxPoint x="592" y="1054" as="targetPoint"/>
                        <mxPoint as="offset"/>
                    </mxGeometry>
                </mxCell>
                <mxCell id="77" value="&lt;span id=&quot;docs-internal-guid-80087bf0-7fff-47d4-c1c9-a729f8e884e3&quot;&gt;&lt;span style=&quot;background-color: transparent; font-variant-numeric: normal; font-variant-east-asian: normal; font-variant-alternates: normal; vertical-align: baseline;&quot;&gt;18.3. send error to page&lt;/span&gt;&lt;/span&gt;&lt;span style=&quot;color: rgba(0, 0, 0, 0); font-family: monospace; font-size: 0px; text-align: start; background-color: rgb(251, 251, 251);&quot;&gt;%3CmxGraphModel%3E%3Croot%3E%3CmxCell%20id%3D%220%22%2F%3E%3CmxCell%20id%3D%221%22%20parent%3D%220%22%2F%3E%3CmxCell%20id%3D%222%22%20value%3D%22%26lt%3Bspan%20id%3D%26quot%3Bdocs-internal-guid-80087bf0-7fff-47d4-c1c9-a729f8e884e3%26quot%3B%26gt%3B%26lt%3Bspan%20style%3D%26quot%3Bbackground-color%3A%20transparent%3B%20font-variant-numeric%3A%20normal%3B%20font-variant-east-asian%3A%20normal%3B%20font-variant-alternates%3A%20normal%3B%20vertical-align%3A%20baseline%3B%26quot%3B%26gt%3Bsend%20Error%20to%20Conttroller%26lt%3B%2Fspan%26gt%3B%26lt%3B%2Fspan%26gt%3B%22%20style%3D%22endArrow%3Dclassic%3Bhtml%3D1%3Bdashed%3D1%3B%22%20edge%3D%221%22%20parent%3D%221%22%3E%3CmxGeometry%20x%3D%220.2424%22%20width%3D%2250%22%20height%3D%2250%22%20relative%3D%221%22%20as%3D%22geometry%22%3E%3CmxPoint%20x%3D%22854.0000000000005%22%20y%3D%22558.73%22%20as%3D%22sourcePoint%22%2F%3E%3CmxPoint%20x%3D%22590%22%20y%3D%22559%22%20as%3D%22targetPoint%22%2F%3E%3CmxPoint%20as%3D%22offset%22%2F%3E%3C%2FmxGeometry%3E%3C%2FmxCell%3E%3C%2Froot%3E%3C%2FmxGraphModel%3E&lt;/span&gt;" style="endArrow=classic;html=1;dashed=1;entryX=0.989;entryY=0.659;entryDx=0;entryDy=0;entryPerimeter=0;" edge="1" parent="1">
                    <mxGeometry x="0.2424" width="50" height="50" relative="1" as="geometry">
                        <mxPoint x="577.0000000000005" y="1061.73" as="sourcePoint"/>
                        <mxPoint x="305.8900000000001" y="1063.163" as="targetPoint"/>
                        <mxPoint as="offset"/>
                    </mxGeometry>
                </mxCell>
                <mxCell id="79" value="" style="rounded=0;whiteSpace=wrap;html=1;" vertex="1" parent="1">
                    <mxGeometry x="868" y="1165" width="10" height="210" as="geometry"/>
                </mxCell>
                <mxCell id="80" value="&lt;span id=&quot;docs-internal-guid-80087bf0-7fff-47d4-c1c9-a729f8e884e3&quot;&gt;&lt;span style=&quot;background-color: transparent; font-variant-numeric: normal; font-variant-east-asian: normal; font-variant-alternates: normal; vertical-align: baseline;&quot;&gt;21. executeQuery()&lt;/span&gt;&lt;/span&gt;" style="endArrow=classic;html=1;exitX=0.975;exitY=0.151;exitDx=0;exitDy=0;exitPerimeter=0;entryX=0.004;entryY=0.056;entryDx=0;entryDy=0;entryPerimeter=0;" edge="1" parent="1">
                    <mxGeometry x="-0.7211" width="50" height="50" relative="1" as="geometry">
                        <mxPoint x="877.75" y="1196.71" as="sourcePoint"/>
                        <mxPoint x="1395.0400000000004" y="1196.584" as="targetPoint"/>
                        <mxPoint as="offset"/>
                    </mxGeometry>
                </mxCell>
                <mxCell id="81" value="" style="rounded=0;whiteSpace=wrap;html=1;" vertex="1" parent="1">
                    <mxGeometry x="1396" y="1186" width="10" height="189" as="geometry"/>
                </mxCell>
                <mxCell id="82" value="&lt;span id=&quot;docs-internal-guid-80087bf0-7fff-47d4-c1c9-a729f8e884e3&quot;&gt;&lt;span style=&quot;background-color: transparent; font-variant-numeric: normal; font-variant-east-asian: normal; font-variant-alternates: normal; vertical-align: baseline;&quot;&gt;22.1. return Result&lt;/span&gt;&lt;/span&gt;" style="endArrow=classic;html=1;dashed=1;entryX=0.993;entryY=0.492;entryDx=0;entryDy=0;entryPerimeter=0;exitX=-0.107;exitY=0.436;exitDx=0;exitDy=0;exitPerimeter=0;" edge="1" parent="1">
                    <mxGeometry x="0.6867" width="50" height="50" relative="1" as="geometry">
                        <mxPoint x="1393.9299999999998" y="1268.4040000000002" as="sourcePoint"/>
                        <mxPoint x="877.9300000000001" y="1268.32" as="targetPoint"/>
                        <mxPoint as="offset"/>
                    </mxGeometry>
                </mxCell>
                <mxCell id="83" value="&lt;span id=&quot;docs-internal-guid-80087bf0-7fff-47d4-c1c9-a729f8e884e3&quot;&gt;&lt;span style=&quot;background-color: transparent; font-variant-numeric: normal; font-variant-east-asian: normal; font-variant-alternates: normal; vertical-align: baseline;&quot;&gt;23. return null&lt;/span&gt;&lt;/span&gt;" style="endArrow=classic;html=1;dashed=1;exitX=-0.107;exitY=0.887;exitDx=0;exitDy=0;exitPerimeter=0;" edge="1" parent="1">
                    <mxGeometry x="0.6867" width="50" height="50" relative="1" as="geometry">
                        <mxPoint x="1393.9299999999998" y="1353.643" as="sourcePoint"/>
                        <mxPoint x="877" y="1355" as="targetPoint"/>
                        <mxPoint as="offset"/>
                    </mxGeometry>
                </mxCell>
                <mxCell id="84" value="&lt;span id=&quot;docs-internal-guid-80087bf0-7fff-47d4-c1c9-a729f8e884e3&quot;&gt;&lt;span style=&quot;background-color: transparent; font-variant-numeric: normal; font-variant-east-asian: normal; font-variant-alternates: normal; vertical-align: baseline;&quot;&gt;22.2. send Error to Conttroller&lt;/span&gt;&lt;/span&gt;" style="endArrow=classic;html=1;dashed=1;exitX=-0.058;exitY=0.746;exitDx=0;exitDy=0;exitPerimeter=0;" edge="1" parent="1">
                    <mxGeometry x="0.2424" width="50" height="50" relative="1" as="geometry">
                        <mxPoint x="852.4200000000001" y="1282.3399999999997" as="sourcePoint"/>
                        <mxPoint x="591" y="1283" as="targetPoint"/>
                        <mxPoint as="offset"/>
                    </mxGeometry>
                </mxCell>
                <mxCell id="85" value="&lt;span id=&quot;docs-internal-guid-80087bf0-7fff-47d4-c1c9-a729f8e884e3&quot;&gt;&lt;span style=&quot;background-color: transparent; font-variant-numeric: normal; font-variant-east-asian: normal; font-variant-alternates: normal; vertical-align: baseline;&quot;&gt;22.3. send error to page&lt;/span&gt;&lt;/span&gt;&lt;span style=&quot;color: rgba(0, 0, 0, 0); font-family: monospace; font-size: 0px; text-align: start; background-color: rgb(251, 251, 251);&quot;&gt;%3CmxGraphModel%3E%3Croot%3E%3CmxCell%20id%3D%220%22%2F%3E%3CmxCell%20id%3D%221%22%20parent%3D%220%22%2F%3E%3CmxCell%20id%3D%222%22%20value%3D%22%26lt%3Bspan%20id%3D%26quot%3Bdocs-internal-guid-80087bf0-7fff-47d4-c1c9-a729f8e884e3%26quot%3B%26gt%3B%26lt%3Bspan%20style%3D%26quot%3Bbackground-color%3A%20transparent%3B%20font-variant-numeric%3A%20normal%3B%20font-variant-east-asian%3A%20normal%3B%20font-variant-alternates%3A%20normal%3B%20vertical-align%3A%20baseline%3B%26quot%3B%26gt%3Bsend%20Error%20to%20Conttroller%26lt%3B%2Fspan%26gt%3B%26lt%3B%2Fspan%26gt%3B%22%20style%3D%22endArrow%3Dclassic%3Bhtml%3D1%3Bdashed%3D1%3B%22%20edge%3D%221%22%20parent%3D%221%22%3E%3CmxGeometry%20x%3D%220.2424%22%20width%3D%2250%22%20height%3D%2250%22%20relative%3D%221%22%20as%3D%22geometry%22%3E%3CmxPoint%20x%3D%22854.0000000000005%22%20y%3D%22558.73%22%20as%3D%22sourcePoint%22%2F%3E%3CmxPoint%20x%3D%22590%22%20y%3D%22559%22%20as%3D%22targetPoint%22%2F%3E%3CmxPoint%20as%3D%22offset%22%2F%3E%3C%2FmxGeometry%3E%3C%2FmxCell%3E%3C%2Froot%3E%3C%2FmxGraphModel%3E&lt;/span&gt;" style="endArrow=classic;html=1;dashed=1;entryX=1.4;entryY=0.815;entryDx=0;entryDy=0;entryPerimeter=0;" edge="1" parent="1">
                    <mxGeometry x="0.2424" width="50" height="50" relative="1" as="geometry">
                        <mxPoint x="577.0000000000005" y="1290.73" as="sourcePoint"/>
                        <mxPoint x="310" y="1290.455" as="targetPoint"/>
                        <mxPoint as="offset"/>
                    </mxGeometry>
                </mxCell>
                <mxCell id="89" value="16. isCitizenIDExist()" style="endArrow=classic;html=1;exitX=1.078;exitY=0.043;exitDx=0;exitDy=0;exitPerimeter=0;rounded=0;entryX=1.173;entryY=0.066;entryDx=0;entryDy=0;entryPerimeter=0;" edge="1" parent="1">
                    <mxGeometry x="0.0343" y="20" width="50" height="50" relative="1" as="geometry">
                        <mxPoint x="871" y="922.21" as="sourcePoint"/>
                        <mxPoint x="878.73" y="949.8600000000001" as="targetPoint"/>
                        <mxPoint as="offset"/>
                        <Array as="points">
                            <mxPoint x="916.22" y="922"/>
                            <mxPoint x="916" y="950"/>
                        </Array>
                    </mxGeometry>
                </mxCell>
                <mxCell id="90" value="20. isPhoneNumberExist()" style="endArrow=classic;html=1;exitX=1.078;exitY=0.043;exitDx=0;exitDy=0;exitPerimeter=0;rounded=0;entryX=0.993;entryY=0.083;entryDx=0;entryDy=0;entryPerimeter=0;" edge="1" parent="1">
                    <mxGeometry x="0.0665" y="43" width="50" height="50" relative="1" as="geometry">
                        <mxPoint x="872" y="1155.21" as="sourcePoint"/>
                        <mxPoint x="877.9300000000001" y="1182.4299999999998" as="targetPoint"/>
                        <mxPoint as="offset"/>
                        <Array as="points">
                            <mxPoint x="917.22" y="1155"/>
                            <mxPoint x="917" y="1183"/>
                        </Array>
                    </mxGeometry>
                </mxCell>
                <mxCell id="91" value="[Email is Exist]" style="text;html=1;strokeColor=none;fillColor=none;align=center;verticalAlign=middle;whiteSpace=wrap;rounded=0;fontFamily=Helvetica;fontSize=11;" vertex="1" parent="1">
                    <mxGeometry x="861" y="770" width="170" height="30" as="geometry"/>
                </mxCell>
                <mxCell id="92" value="[CitizenID is Exist]" style="text;html=1;strokeColor=none;fillColor=none;align=center;verticalAlign=middle;whiteSpace=wrap;rounded=0;fontFamily=Helvetica;fontSize=11;" vertex="1" parent="1">
                    <mxGeometry x="868" y="1000" width="170" height="30" as="geometry"/>
                </mxCell>
                <mxCell id="93" value="[PhoneNumber is Exist]" style="text;html=1;strokeColor=none;fillColor=none;align=center;verticalAlign=middle;whiteSpace=wrap;rounded=0;fontFamily=Helvetica;fontSize=11;" vertex="1" parent="1">
                    <mxGeometry x="871" y="1220" width="170" height="30" as="geometry"/>
                </mxCell>
                <mxCell id="94" value="" style="endArrow=none;dashed=1;html=1;dashPattern=1 3;strokeWidth=2;rounded=0;fontFamily=Helvetica;fontSize=11;exitX=0;exitY=0.306;exitDx=0;exitDy=0;exitPerimeter=0;" edge="1" parent="1">
                    <mxGeometry width="50" height="50" relative="1" as="geometry">
                        <mxPoint x="-10" y="1082.0040000000001" as="sourcePoint"/>
                        <mxPoint x="1470" y="1080" as="targetPoint"/>
                    </mxGeometry>
                </mxCell>
                <mxCell id="95" value="" style="endArrow=none;dashed=1;html=1;dashPattern=1 3;strokeWidth=2;rounded=0;fontFamily=Helvetica;fontSize=11;exitX=0;exitY=0.306;exitDx=0;exitDy=0;exitPerimeter=0;" edge="1" parent="1">
                    <mxGeometry width="50" height="50" relative="1" as="geometry">
                        <mxPoint x="30" y="1309.004" as="sourcePoint"/>
                        <mxPoint x="1450" y="1307" as="targetPoint"/>
                    </mxGeometry>
                </mxCell>
                <mxCell id="96" value="[Else]" style="text;html=1;strokeColor=none;fillColor=none;align=center;verticalAlign=middle;whiteSpace=wrap;rounded=0;fontFamily=Helvetica;fontSize=11;" vertex="1" parent="1">
                    <mxGeometry x="871" y="1310" width="170" height="30" as="geometry"/>
                </mxCell>
                <mxCell id="97" value="[Else]" style="text;html=1;strokeColor=none;fillColor=none;align=center;verticalAlign=middle;whiteSpace=wrap;rounded=0;fontFamily=Helvetica;fontSize=11;" vertex="1" parent="1">
                    <mxGeometry x="912" y="1080" width="82" height="30" as="geometry"/>
                </mxCell>
                <mxCell id="98" value="[Else]" style="text;html=1;strokeColor=none;fillColor=none;align=center;verticalAlign=middle;whiteSpace=wrap;rounded=0;fontFamily=Helvetica;fontSize=11;" vertex="1" parent="1">
                    <mxGeometry x="905" y="860" width="82" height="30" as="geometry"/>
                </mxCell>
                <mxCell id="99" value="24. return true" style="endArrow=classic;html=1;exitX=1.08;exitY=0.985;exitDx=0;exitDy=0;exitPerimeter=0;rounded=0;entryX=1.077;entryY=0.861;entryDx=0;entryDy=0;entryPerimeter=0;dashed=1;" edge="1" parent="1">
                    <mxGeometry x="-0.0448" y="10" width="50" height="50" relative="1" as="geometry">
                        <mxPoint x="873.8000000000002" y="1404.04" as="sourcePoint"/>
                        <mxPoint x="865.77" y="1430.6899999999998" as="targetPoint"/>
                        <mxPoint as="offset"/>
                        <Array as="points">
                            <mxPoint x="923.22" y="1404"/>
                            <mxPoint x="923" y="1432"/>
                        </Array>
                    </mxGeometry>
                </mxCell>
                <mxCell id="100" value="&lt;span id=&quot;docs-internal-guid-80087bf0-7fff-47d4-c1c9-a729f8e884e3&quot;&gt;&lt;span style=&quot;background-color: transparent; font-variant-numeric: normal; font-variant-east-asian: normal; font-variant-alternates: normal; vertical-align: baseline;&quot;&gt;25. executeUpdate()&lt;/span&gt;&lt;/span&gt;" style="endArrow=classic;html=1;exitX=1.213;exitY=0.099;exitDx=0;exitDy=0;exitPerimeter=0;entryX=-0.114;entryY=0.123;entryDx=0;entryDy=0;entryPerimeter=0;" edge="1" parent="1">
                    <mxGeometry x="-0.6333" width="50" height="50" relative="1" as="geometry">
                        <mxPoint x="863" y="1450.183" as="sourcePoint"/>
                        <mxPoint x="1392.8600000000001" y="1450.0219999999997" as="targetPoint"/>
                        <mxPoint as="offset"/>
                    </mxGeometry>
                </mxCell>
                <mxCell id="101" value="" style="rounded=0;whiteSpace=wrap;html=1;" vertex="1" parent="1">
                    <mxGeometry x="1395" y="1436" width="10" height="74" as="geometry"/>
                </mxCell>
                <mxCell id="102" value="&lt;span id=&quot;docs-internal-guid-80087bf0-7fff-47d4-c1c9-a729f8e884e3&quot;&gt;&lt;span style=&quot;background-color: transparent; font-variant-numeric: normal; font-variant-east-asian: normal; font-variant-alternates: normal; vertical-align: baseline;&quot;&gt;26. return Result&lt;/span&gt;&lt;/span&gt;" style="endArrow=classic;html=1;exitX=-0.167;exitY=0.33;exitDx=0;exitDy=0;entryX=1.2;entryY=0.757;entryDx=0;entryDy=0;exitPerimeter=0;entryPerimeter=0;dashed=1;" edge="1" parent="1">
                    <mxGeometry x="0.6855" width="50" height="50" relative="1" as="geometry">
                        <mxPoint x="1391.33" y="1493.42" as="sourcePoint"/>
                        <mxPoint x="864" y="1493.35" as="targetPoint"/>
                        <mxPoint as="offset"/>
                    </mxGeometry>
                </mxCell>
                <mxCell id="103" value="27.1 return false" style="endArrow=classic;html=1;dashed=1;exitX=1;exitY=0.164;exitDx=0;exitDy=0;exitPerimeter=0;entryX=0.987;entryY=0.912;entryDx=0;entryDy=0;entryPerimeter=0;" edge="1" parent="1">
                    <mxGeometry x="0.5269" width="50" height="50" relative="1" as="geometry">
                        <mxPoint x="850" y="1509.52" as="sourcePoint"/>
                        <mxPoint x="591.8700000000001" y="1509.672" as="targetPoint"/>
                        <mxPoint as="offset"/>
                    </mxGeometry>
                </mxCell>
                <mxCell id="104" value="28. return true" style="endArrow=classic;html=1;exitX=-0.167;exitY=0.33;exitDx=0;exitDy=0;exitPerimeter=0;dashed=1;entryX=1.147;entryY=0.974;entryDx=0;entryDy=0;entryPerimeter=0;" edge="1" parent="1">
                    <mxGeometry x="0.5269" width="50" height="50" relative="1" as="geometry">
                        <mxPoint x="852.83" y="1600.0700000000002" as="sourcePoint"/>
                        <mxPoint x="593.47" y="1601.4940000000001" as="targetPoint"/>
                        <mxPoint as="offset"/>
                    </mxGeometry>
                </mxCell>
                <mxCell id="105" value="27.2. send error to page" style="endArrow=classic;html=1;exitX=-0.167;exitY=0.33;exitDx=0;exitDy=0;exitPerimeter=0;dashed=1;entryX=1.319;entryY=0.811;entryDx=0;entryDy=0;entryPerimeter=0;" edge="1" parent="1">
                    <mxGeometry x="0.392" y="-1" width="50" height="50" relative="1" as="geometry">
                        <mxPoint x="575" y="1530.0700000000002" as="sourcePoint"/>
                        <mxPoint x="309.19000000000005" y="1527.9270000000001" as="targetPoint"/>
                        <mxPoint as="offset"/>
                    </mxGeometry>
                </mxCell>
                <mxCell id="106" value="14.4 display information" style="endArrow=classic;html=1;dashed=1;" edge="1" parent="1">
                    <mxGeometry x="0.2369" width="50" height="50" relative="1" as="geometry">
                        <mxPoint x="291" y="835" as="sourcePoint"/>
                        <mxPoint x="59.99999999999977" y="835.27" as="targetPoint"/>
                        <mxPoint as="offset"/>
                    </mxGeometry>
                </mxCell>
                <mxCell id="107" value="18.4. display information" style="endArrow=classic;html=1;dashed=1;" edge="1" parent="1">
                    <mxGeometry x="0.2369" width="50" height="50" relative="1" as="geometry">
                        <mxPoint x="296" y="1070" as="sourcePoint"/>
                        <mxPoint x="65" y="1070.27" as="targetPoint"/>
                        <mxPoint as="offset"/>
                    </mxGeometry>
                </mxCell>
                <mxCell id="108" value="22.4. display information" style="endArrow=classic;html=1;dashed=1;" edge="1" parent="1">
                    <mxGeometry x="0.2369" width="50" height="50" relative="1" as="geometry">
                        <mxPoint x="296" y="1300" as="sourcePoint"/>
                        <mxPoint x="65" y="1300.27" as="targetPoint"/>
                        <mxPoint as="offset"/>
                    </mxGeometry>
                </mxCell>
                <mxCell id="109" value="27.3. display information" style="endArrow=classic;html=1;dashed=1;" edge="1" parent="1">
                    <mxGeometry x="0.2369" width="50" height="50" relative="1" as="geometry">
                        <mxPoint x="297" y="1534.0000000000002" as="sourcePoint"/>
                        <mxPoint x="66" y="1534.27" as="targetPoint"/>
                        <mxPoint as="offset"/>
                    </mxGeometry>
                </mxCell>
                <mxCell id="110" value="29. redirect to EmployeeListPage" style="endArrow=classic;html=1;exitX=-0.167;exitY=0.33;exitDx=0;exitDy=0;exitPerimeter=0;dashed=1;" edge="1" parent="1">
                    <mxGeometry x="0.5269" width="50" height="50" relative="1" as="geometry">
                        <mxPoint x="575" y="1620.0700000000002" as="sourcePoint"/>
                        <mxPoint x="70" y="1620" as="targetPoint"/>
                        <mxPoint as="offset"/>
                    </mxGeometry>
                </mxCell>
                <mxCell id="112" value="[add failed]" style="text;html=1;strokeColor=none;fillColor=none;align=center;verticalAlign=middle;whiteSpace=wrap;rounded=0;fontFamily=Helvetica;fontSize=11;" vertex="1" parent="1">
                    <mxGeometry x="100" y="1490" width="170" height="30" as="geometry"/>
                </mxCell>
                <mxCell id="113" value="[add successfully]" style="text;html=1;strokeColor=none;fillColor=none;align=center;verticalAlign=middle;whiteSpace=wrap;rounded=0;fontFamily=Helvetica;fontSize=11;" vertex="1" parent="1">
                    <mxGeometry x="100" y="1570" width="170" height="30" as="geometry"/>
                </mxCell>
                <mxCell id="115" value="" style="endArrow=none;dashed=1;html=1;rounded=0;fontFamily=Helvetica;fontSize=11;entryX=0.999;entryY=0.407;entryDx=0;entryDy=0;entryPerimeter=0;exitX=0;exitY=0.397;exitDx=0;exitDy=0;exitPerimeter=0;" edge="1" parent="1">
                    <mxGeometry width="50" height="50" relative="1" as="geometry">
                        <mxPoint x="51" y="1562.46" as="sourcePoint"/>
                        <mxPoint x="850.2000000000003" y="1564.2600000000002" as="targetPoint"/>
                    </mxGeometry>
                </mxCell>
            </root>
        </mxGraphModel>
    </diagram>
</mxfile>